<svg width="105" height="105" viewBox="0 0 105 105" fill="none" xmlns="http://www.w3.org/2000/svg">
<path d="M21.3278 47.5847V77.1116C21.3256 77.496 21.4585 77.8689 21.7032 78.1653C26.1951 83.5556 33.8149 86.8382 40.3059 88.9321C46.7969 91.026 52.2475 91.863 52.2475 91.863C52.416 91.8894 52.5877 91.8894 52.7562 91.863C52.7562 91.863 58.2068 91.026 64.6978 88.9321C71.1887 86.8382 78.7964 83.5556 83.2884 78.1653C83.5374 77.8706 83.6747 77.4975 83.6759 77.1116V47.5847H80.3938V76.276C76.618 80.5806 69.7792 83.844 63.6925 85.8074C57.6065 87.7707 52.7259 88.5216 52.5018 88.5567C52.2778 88.5216 47.3972 87.7707 41.3111 85.8074C35.2244 83.844 28.3857 80.5806 24.6099 76.276V47.5847H21.3278Z" fill="black"/>
<path d="M52.2717 13.1406C28.5446 16.5302 5.49846 36.4909 5.49846 36.4909C4.71539 37.1623 4.73872 38.3811 5.5469 39.0221C5.5469 39.0221 28.6204 57.3102 52.2717 60.6889C52.4244 60.7106 52.5793 60.7106 52.7319 60.6889C76.3833 57.3102 99.4567 39.0221 99.4567 39.0221C100.265 38.3811 100.288 37.1623 99.5051 36.4909C99.5051 36.4909 76.459 16.5302 52.7318 13.1406L52.501 13.1253L52.2717 13.1406ZM52.5018 16.4591C73.2016 19.5218 92.8641 35.4752 95.5327 37.6778C92.8029 39.7455 73.2343 54.327 52.5018 57.3826C31.7693 54.327 12.2007 39.7455 9.47091 37.6778C12.1396 35.4752 31.802 19.5218 52.5018 16.4591Z" fill="black"/>
<path d="M52.4291 32.8091C50.3759 32.8253 50.2087 35.8356 52.2475 36.0791L91.8751 42.4133V75.4646H95.1573V39.6156L52.7561 32.8333C52.6482 32.8143 52.5387 32.8062 52.4291 32.8091Z" fill="black"/>
<path d="M90.2403 73.8297C89.8605 73.8293 89.4923 73.9607 89.1986 74.2014C88.9048 74.4421 88.7037 74.7773 88.6295 75.1498L86.9824 83.349C86.9348 83.5872 86.9408 83.8329 86.9997 84.0685C87.0587 84.3041 87.1692 84.5237 87.3233 84.7114C87.4774 84.8991 87.6712 85.0502 87.8908 85.1539C88.1104 85.2576 88.3503 85.3113 88.5931 85.311H98.4395C98.6824 85.3113 98.9222 85.2576 99.1418 85.1539C99.3615 85.0502 99.5553 84.8991 99.7094 84.7114C99.8635 84.5237 99.974 84.3041 100.033 84.0685C100.092 83.8329 100.098 83.5872 100.05 83.349L98.4032 75.1498C98.3294 74.7793 98.13 74.4457 97.8388 74.2052C97.5475 73.9647 97.1822 73.8321 96.8045 73.8297H90.2403ZM91.5846 77.1118H95.4602L96.4412 82.0289H90.6036L91.5846 77.1118Z" fill="black"/>
<rect x="0.5" y="0.5" width="104" height="104" stroke="white"/>
</svg>
