<svg width="86" height="82" viewBox="0 0 86 82" fill="none" xmlns="http://www.w3.org/2000/svg">
<path d="M56.4375 25.9544L56.4375 25.9544C57.0754 26.4244 58.0429 26.7322 58.976 26.9682C59.9799 27.2221 61.2114 27.4532 62.563 27.6721C64.4221 27.9732 66.589 28.2633 68.8053 28.5601C69.8021 28.6935 70.8088 28.8283 71.8021 28.966C75.0413 29.4152 78.1486 29.8969 80.5033 30.4763C81.6866 30.7674 82.6077 31.0663 83.2377 31.3654C83.5054 31.4925 83.6837 31.6026 83.7949 31.6868C83.7525 31.8187 83.6703 32.01 83.5252 32.2661C83.1824 32.8713 82.6012 33.6432 81.8006 34.5594C80.2077 36.3825 77.9426 38.5571 75.5504 40.7808C74.817 41.4626 74.0709 42.1497 73.3321 42.83C71.6892 44.3429 70.0829 45.8222 68.7348 47.134C67.7547 48.0877 66.8799 48.9827 66.2044 49.766C65.5769 50.4937 64.9615 51.301 64.7098 52.0527L64.7098 52.0528C64.458 52.8048 64.4635 53.8194 64.5268 54.7773C64.5949 55.8084 64.7551 57.0481 64.964 58.3977C65.2513 60.254 65.6443 62.3989 66.0462 64.5925C66.2269 65.5789 66.4094 66.5752 66.585 67.5595C67.1576 70.7703 67.6582 73.8652 67.8333 76.2766C67.9212 77.4885 67.9207 78.4534 67.8303 79.1422C67.7917 79.4362 67.7416 79.6392 67.6957 79.77C67.5557 79.7711 67.3452 79.7525 67.0514 79.6931C66.3674 79.5548 65.4511 79.242 64.3298 78.7659C62.0985 77.8185 59.3244 76.3422 56.4643 74.7608C55.5873 74.2759 54.7012 73.7806 53.8239 73.2901C51.8735 72.1997 49.9664 71.1335 48.2988 70.2605C47.0863 69.6258 45.9625 69.0728 45.0069 68.6743C44.1185 68.3039 43.1598 67.9706 42.3674 67.9641C41.5749 67.9578 40.611 68.2757 39.7167 68.6318C38.7548 69.0148 37.6222 69.5496 36.3997 70.1647C34.7181 71.0108 32.794 72.0462 30.8261 73.1051C29.941 73.5814 29.0471 74.0624 28.1624 74.5331C25.2771 76.0682 22.4795 77.4997 20.2331 78.4111C19.1042 78.8691 18.1829 79.1671 17.4968 79.2944C17.2022 79.349 16.9914 79.3643 16.8515 79.3608C16.8077 79.2294 16.7609 79.0256 16.7271 78.7311C16.6478 78.0409 16.6629 77.0761 16.7705 75.8659C16.9845 73.4576 17.5352 70.371 18.1596 67.1699C18.3511 66.1886 18.5497 65.1953 18.7464 64.2119C19.1837 62.0251 19.6113 59.8868 19.9286 58.0353C20.1593 56.6893 20.3395 55.4523 20.4243 54.4225C20.5031 53.4657 20.5251 52.4513 20.2855 51.6954C20.046 50.9397 19.4438 50.1225 18.8281 49.3848C18.1654 48.5908 17.3052 47.6818 16.3407 46.7125C15.014 45.3791 13.4317 43.8741 11.8135 42.335C11.0859 41.6429 10.3509 40.9439 9.62874 40.2504C7.2729 37.9885 5.04326 35.7778 3.47997 33.9293C2.69434 33.0003 2.12575 32.2191 1.79275 31.6085C1.65178 31.35 1.57275 31.1574 1.5325 31.0249C1.645 30.9425 1.82509 30.8352 2.09494 30.7124C2.72972 30.4234 3.65548 30.1394 4.84336 29.8673C7.20714 29.326 10.3217 28.8944 13.5678 28.4974C14.5629 28.3757 15.5716 28.2571 16.5703 28.1397C18.7912 27.8787 20.9626 27.6235 22.8265 27.3523C24.1814 27.1552 25.4165 26.9439 26.4244 26.7062C27.3612 26.4852 28.3335 26.193 28.9789 25.7333C29.6247 25.2733 30.2178 24.4502 30.7314 23.638C31.284 22.764 31.8852 21.6673 32.5117 20.4531C33.3734 18.7829 34.3199 16.8173 35.2878 14.8072C35.7231 13.9032 36.1627 12.9901 36.6009 12.0909C38.0303 9.15782 39.4497 6.36035 40.7297 4.30671C41.3729 3.2747 41.9423 2.49403 42.4219 1.98937C42.6285 1.77204 42.7901 1.63632 42.905 1.55736C43.0187 1.63815 43.178 1.77642 43.3809 1.99697C43.8523 2.50927 44.4089 3.29898 45.0353 4.34121C46.2817 6.41517 47.6557 9.23511 49.0374 12.1909C49.4609 13.0969 49.8856 14.0167 50.3061 14.9275C51.2414 16.9531 52.156 18.9338 52.9906 20.6178C53.5974 21.842 54.1807 22.9482 54.7191 23.831C55.2195 24.6514 55.7992 25.484 56.4375 25.9544ZM83.9079 31.7869C83.9079 31.787 83.9072 31.7862 83.906 31.7845C83.9073 31.7861 83.9079 31.7869 83.9079 31.7869ZM67.6362 79.9054C67.6362 79.9053 67.6367 79.9044 67.6379 79.9028C67.6367 79.9047 67.6361 79.9055 67.6362 79.9054ZM16.7041 79.346C16.7041 79.3459 16.7051 79.3462 16.707 79.3468C16.705 79.3463 16.7041 79.346 16.7041 79.346ZM16.9072 79.4947C16.9083 79.4964 16.9088 79.4973 16.9088 79.4973C16.9088 79.4973 16.9082 79.4965 16.9072 79.4947ZM1.41988 31.1207C1.41863 31.1223 1.41793 31.1231 1.41789 31.1231C1.41785 31.1231 1.41848 31.1223 1.41988 31.1207ZM1.49986 30.8775C1.4999 30.8775 1.49998 30.8786 1.5 30.8807L1.49986 30.8775ZM43.0316 1.48393C43.0316 1.48397 43.0306 1.48435 43.0288 1.48497C43.0307 1.48421 43.0316 1.4839 43.0316 1.48393ZM42.7825 1.48296C42.7806 1.48231 42.7797 1.48191 42.7797 1.48188C42.7797 1.48184 42.7806 1.48217 42.7825 1.48296Z" stroke="black" stroke-width="3"/>
</svg>
