<svg width="88" height="85" viewBox="0 0 88 85" fill="none" xmlns="http://www.w3.org/2000/svg">
<path d="M60.3962 54.9056C65.8258 54.9056 71.1335 53.2955 75.6481 50.2789C80.1627 47.2624 83.6814 42.9749 85.7593 37.9585C87.8371 32.9422 88.3808 27.4223 87.3215 22.097C86.2622 16.7717 83.6476 11.8801 79.8082 8.04074C75.9689 4.2014 71.0773 1.58678 65.752 0.52751C60.4266 -0.531762 54.9068 0.0118948 49.8904 2.08973C44.8741 4.16757 40.5866 7.68626 37.57 12.2008C34.5534 16.7154 32.9434 22.0231 32.9434 27.4528C32.9519 34.7311 35.847 41.7088 40.9936 46.8554C46.1401 52.0019 53.1179 54.897 60.3962 54.9056ZM60.3962 2.74529C65.2829 2.74529 70.0598 4.19436 74.1229 6.90925C78.1861 9.62415 81.3529 13.4829 83.223 17.9976C85.093 22.5123 85.5823 27.4802 84.629 32.273C83.6756 37.0658 81.3224 41.4682 77.867 44.9236C74.4116 48.379 70.0092 50.7322 65.2164 51.6855C60.4236 52.6389 55.4557 52.1496 50.941 50.2795C46.4263 48.4095 42.5675 45.2427 39.8526 41.1795C37.1377 37.1164 35.6886 32.3395 35.6886 27.4528C35.6958 20.9021 38.3012 14.6219 42.9332 9.98985C47.5652 5.35784 53.8455 2.75244 60.3962 2.74529ZM60.3962 31.5707C61.0078 31.5674 61.6108 31.4264 62.1604 31.158L67.49 36.4875C67.7482 36.7406 68.096 36.8816 68.4576 36.8797C68.8192 36.8779 69.1654 36.7334 69.4211 36.4777C69.6768 36.222 69.8213 35.8758 69.8231 35.5142C69.8249 35.1526 69.684 34.8049 69.4309 34.5466L64.1013 29.217C64.3697 28.6674 64.5108 28.0644 64.5141 27.4528C64.5115 26.604 64.2462 25.7767 63.7547 25.0847C63.2631 24.3927 62.5694 23.8697 61.7688 23.5877V17.8443C61.7688 17.4803 61.6242 17.1311 61.3668 16.8737C61.1094 16.6163 60.7602 16.4717 60.3962 16.4717C60.0321 16.4717 59.683 16.6163 59.4256 16.8737C59.1682 17.1311 59.0235 17.4803 59.0235 17.8443V23.5877C58.108 23.9096 57.3359 24.5453 56.8443 25.382C56.3526 26.2188 56.1731 27.2026 56.3376 28.1591C56.502 29.1155 56.9999 29.9829 57.7428 30.6074C58.4857 31.2318 59.4257 31.5731 60.3962 31.5707ZM60.3962 26.0802C60.6677 26.0802 60.933 26.1607 61.1588 26.3115C61.3845 26.4623 61.5604 26.6767 61.6643 26.9275C61.7682 27.1783 61.7954 27.4543 61.7424 27.7206C61.6895 27.9868 61.5587 28.2314 61.3668 28.4234C61.1748 28.6154 60.9302 28.7461 60.664 28.7991C60.3977 28.852 60.1217 28.8248 59.8709 28.7209C59.6201 28.6171 59.4057 28.4411 59.2549 28.2154C59.104 27.9897 59.0235 27.7243 59.0235 27.4528C59.0243 27.089 59.1691 26.7403 59.4264 26.483C59.6836 26.2257 60.0324 26.0809 60.3962 26.0802ZM44.8655 42.9835C44.8847 43.0027 44.9107 43.0089 44.9308 43.0269C49.0381 47.118 54.599 49.415 60.3962 49.415C66.1933 49.415 71.7543 47.118 75.8615 43.0269C75.8816 43.0089 75.9076 43.0027 75.9268 42.9835C75.9461 42.9642 75.9523 42.9382 75.9702 42.9181C80.0614 38.8109 82.3584 33.2499 82.3584 27.4528C82.3584 21.6557 80.0614 16.0947 75.9702 11.9875C75.9523 11.9674 75.9461 11.9414 75.9268 11.9221C75.9076 11.9029 75.8816 11.8967 75.8615 11.8787C71.7543 7.78761 66.1933 5.49058 60.3962 5.49058C54.599 5.49058 49.0381 7.78761 44.9308 11.8787C44.9107 11.8967 44.8848 11.9029 44.8655 11.9221C44.8462 11.9414 44.84 11.9674 44.8221 11.9875C40.7309 16.0947 38.4339 21.6557 38.4339 27.4528C38.4339 33.2499 40.7309 38.8109 44.8221 42.9181C44.84 42.9382 44.8462 42.9642 44.8655 42.9835ZM42.5519 26.0802H41.2487C41.5412 21.9448 43.1702 18.0166 45.8903 14.8879L46.8065 15.8041C47.0648 16.0572 47.4125 16.1982 47.7741 16.1964C48.1357 16.1945 48.4819 16.0501 48.7376 15.7944C48.9933 15.5387 49.1378 15.1924 49.1396 14.8308C49.1415 14.4692 49.0005 14.1215 48.7474 13.8632L47.8312 12.947C50.9598 10.2269 54.8881 8.5978 59.0235 8.30538V9.60848C59.0235 9.97253 59.1682 10.3217 59.4256 10.5791C59.683 10.8365 60.0321 10.9811 60.3962 10.9811C60.7602 10.9811 61.1094 10.8365 61.3668 10.5791C61.6242 10.3217 61.7688 9.97253 61.7688 9.60848V8.30538C65.9042 8.59779 69.8324 10.2269 72.9611 12.9469L72.0448 13.8631C71.9153 13.9901 71.8122 14.1415 71.7415 14.3085C71.6708 14.4756 71.6339 14.655 71.633 14.8364C71.6321 15.0178 71.6671 15.1976 71.7361 15.3654C71.8051 15.5332 71.9067 15.6856 72.035 15.8139C72.1633 15.9422 72.3157 16.0437 72.4835 16.1127C72.6512 16.1817 72.831 16.2168 73.0124 16.2159C73.1938 16.2149 73.3733 16.1781 73.5403 16.1074C73.7074 16.0367 73.8588 15.9336 73.9858 15.804L74.902 14.8878C77.6221 18.0165 79.2512 21.9447 79.5436 26.0802H78.2405C77.8765 26.0802 77.5273 26.2248 77.2699 26.4822C77.0125 26.7396 76.8679 27.0887 76.8679 27.4528C76.8679 27.8168 77.0125 28.166 77.2699 28.4234C77.5273 28.6808 77.8765 28.8254 78.2405 28.8254H79.5436C79.2512 32.9608 77.6221 36.889 74.9021 40.0176L73.9859 39.1014C73.7276 38.8483 73.3799 38.7074 73.0183 38.7092C72.6567 38.711 72.3104 38.8555 72.0547 39.1112C71.799 39.3669 71.6546 39.7132 71.6527 40.0748C71.6509 40.4364 71.7919 40.7841 72.045 41.0424L72.9612 41.9586C69.8325 44.6787 65.9043 46.3078 61.7688 46.6002V45.2971C61.7688 44.933 61.6242 44.5839 61.3668 44.3265C61.1094 44.0691 60.7602 43.9245 60.3962 43.9245C60.0321 43.9245 59.683 44.0691 59.4256 44.3265C59.1682 44.5839 59.0235 44.933 59.0235 45.2971V46.6002C54.8881 46.3078 50.9599 44.6787 47.8313 41.9587L48.7475 41.0425C49.0006 40.7842 49.1416 40.4365 49.1397 40.0749C49.1379 39.7133 48.9935 39.367 48.7378 39.1113C48.4821 38.8556 48.1358 38.7112 47.7742 38.7093C47.4126 38.7075 47.0649 38.8485 46.8066 39.1016L45.8904 40.0178C43.1703 36.8891 41.5412 32.9609 41.2487 28.8254H42.5519C42.9159 28.8254 43.265 28.6808 43.5225 28.4234C43.7799 28.166 43.9245 27.8168 43.9245 27.4528C43.9245 27.0887 43.7799 26.7396 43.5225 26.4822C43.265 26.2248 42.9159 26.0802 42.5519 26.0802ZM77.5837 66.6695L49.8654 68.9779C48.8039 69.0686 47.736 68.9088 46.7475 68.5114L46.6053 68.4544L46.6376 68.439C47.6275 67.7692 48.4071 66.8323 48.8859 65.7372C49.3647 64.6421 49.5231 63.4336 49.3426 62.2521C49.1621 61.0705 48.6501 59.9645 47.8662 59.0622C47.0823 58.16 46.0585 57.4986 44.9138 57.1549L20.9837 49.9753C20.9367 49.9682 20.8894 49.9637 20.8419 49.9619C20.2209 49.0036 19.3703 48.2157 18.3674 47.6698C17.3644 47.1239 16.2409 46.8373 15.099 46.836H1.37264C1.19235 46.8359 1.01381 46.8713 0.84723 46.9402C0.680646 47.0092 0.529286 47.1103 0.401804 47.2378C0.274322 47.3652 0.173218 47.5166 0.104273 47.6832C0.0353285 47.8498 -0.000104426 48.0283 2.31167e-07 48.2086V78.4067C-0.000104426 78.5869 0.0353285 78.7655 0.104273 78.9321C0.173218 79.0986 0.274322 79.25 0.401804 79.3775C0.529286 79.505 0.680646 79.6061 0.84723 79.675C1.01381 79.744 1.19235 79.7794 1.37264 79.7793H15.099C16.0913 79.7759 17.0709 79.5561 17.9694 79.1351C18.8679 78.7141 19.6638 78.1021 20.3014 77.3418L43.4848 84.2993C46.4641 85.198 49.6489 85.1502 52.6 84.1625L79.345 75.2484C80.0726 75.0054 80.7242 74.5768 81.2355 74.005C81.7469 73.4332 82.1002 72.7379 82.2607 71.9879C82.4213 71.2378 82.3834 70.4588 82.1509 69.7278C81.9183 68.9968 81.4992 68.3391 80.9348 67.8196C80.4882 67.4035 79.959 67.0861 79.3816 66.8879C78.8043 66.6898 78.1917 66.6154 77.5837 66.6695ZM10.9811 77.034H2.74528V49.5812H10.9811V77.034ZM19.217 72.9161C19.2158 74.0079 18.7815 75.0546 18.0095 75.8266C17.2375 76.5986 16.1908 77.0328 15.099 77.034H13.7264V49.5812H15.099C16.1908 49.5824 17.2375 50.0167 18.0095 50.7887C18.7815 51.5607 19.2158 52.6074 19.217 53.6992V72.9161ZM78.4738 72.6426L51.7314 81.5567C49.3169 82.365 46.7113 82.4053 44.273 81.672L21.9622 74.9751V53.1326L44.1256 59.7822C44.588 59.9206 45.0176 60.1512 45.3884 60.4602C45.7592 60.7692 46.0636 61.1501 46.2831 61.5799C46.5026 62.0098 46.6328 62.4797 46.6657 62.9612C46.6987 63.4428 46.6337 63.926 46.4747 64.3817C46.3157 64.8375 46.066 65.2563 45.7407 65.6128C45.4154 65.9694 45.0212 66.2564 44.5819 66.4564C44.1427 66.6564 43.6674 66.7654 43.1849 66.7767C42.7023 66.788 42.2225 66.7013 41.7744 66.5221L34.8254 63.7419C34.658 63.6744 34.479 63.6405 34.2985 63.6423C34.118 63.6441 33.9397 63.6814 33.7737 63.7523C33.6077 63.8231 33.4573 63.926 33.3312 64.0551C33.205 64.1841 33.1056 64.3368 33.0385 64.5044C32.9715 64.672 32.9382 64.8511 32.9406 65.0316C32.9429 65.212 32.9808 65.3903 33.0522 65.556C33.1235 65.7218 33.2269 65.8719 33.3564 65.9976C33.4858 66.1233 33.6388 66.2223 33.8066 66.2888L40.7556 69.0689L45.7287 71.0582C47.1145 71.6068 48.6076 71.8305 50.0933 71.7123L77.8115 69.4041C78.2742 69.3756 78.7293 69.5318 79.0769 69.8384C79.247 69.9938 79.3826 70.1831 79.4749 70.3941C79.5673 70.6051 79.6144 70.8332 79.6131 71.0636C79.6129 71.413 79.5027 71.7535 79.2982 72.0369C79.0938 72.3203 78.8054 72.5322 78.4738 72.6426Z" fill="black"/>
</svg>
