<svg width="21" height="37" viewBox="0 0 21 37" fill="none" xmlns="http://www.w3.org/2000/svg">
<path fill-rule="evenodd" clip-rule="evenodd" d="M19.6722 0.540553C19.3068 0.193498 18.822 0 18.318 0C17.814 0 17.3293 0.193498 16.9638 0.540553L1.12235 15.8289C0.767742 16.1659 0.485383 16.5715 0.29244 17.021C0.0994966 17.4706 0 17.9546 0 18.4438C0 18.933 0.0994966 19.4171 0.29244 19.8667C0.485383 20.3162 0.767742 20.7218 1.12235 21.0588L17.0785 36.46C17.8185 37.1722 19.0173 37.1815 19.7684 36.4785C19.9503 36.311 20.0957 36.1079 20.1958 35.8819C20.2959 35.6558 20.3484 35.4116 20.3501 35.1644C20.3519 34.9172 20.3028 34.6722 20.2059 34.4448C20.109 34.2174 19.9664 34.0123 19.7869 33.8422L5.18493 19.7509C5.00748 19.5823 4.86618 19.3795 4.76962 19.1546C4.67306 18.9298 4.62327 18.6876 4.62327 18.4429C4.62327 18.1982 4.67306 17.9561 4.76962 17.7312C4.86618 17.5063 5.00748 17.3035 5.18493 17.135L19.6704 3.15459C19.8478 2.98624 19.989 2.78354 20.0856 2.55884C20.1821 2.33414 20.2319 2.09213 20.2319 1.84757C20.2319 1.60301 20.1821 1.36101 20.0856 1.1363C19.989 0.911601 19.8496 0.708902 19.6722 0.540553Z" fill="black"/>
</svg>
