<svg width="24" height="25" viewBox="0 0 24 25" fill="none" xmlns="http://www.w3.org/2000/svg">
<path d="M18.7982 24.2968C17.9663 24.9451 12.6287 20.8356 11.6064 20.8266C10.5841 20.8176 5.18638 24.8326 4.36421 24.1698C3.54205 23.5069 5.47492 16.6985 5.16689 15.6351C4.85887 14.5716 -0.309138 10.2114 0.0145891 9.15349C0.338388 8.09555 6.8706 7.99729 7.70248 7.34899C8.53435 6.70077 10.7381 -0.00894543 11.7605 8.95433e-06C12.7827 0.0090412 14.8869 6.75668 15.7091 7.41954C16.5312 8.08232 23.0613 8.29566 23.3693 9.35913C23.6774 10.4226 18.4456 14.6912 18.1218 15.7491C17.7981 16.8071 19.6301 23.6485 18.7982 24.2968Z" fill="url(#paint0_linear_1_64)"/>
<defs>
<linearGradient id="paint0_linear_1_64" x1="2.99294e-05" y1="12.1831" x2="23.3824" y2="12.1831" gradientUnits="userSpaceOnUse">
<stop stop-color="#FCD635"/>
<stop offset="1" stop-color="#F7A928"/>
</linearGradient>
</defs>
</svg>
